<svg width="835" height="150" viewBox="0 0 835 150" fill="none" xmlns="http://www.w3.org/2000/svg">
<path d="M88.78 12.56C89.0333 16.8667 89.16 20.6667 89.16 23.96C89.16 29.7867 88.6533 36.6267 87.64 44.48C83.5867 43.8467 80.6733 43.53 78.9 43.53C75.48 43.53 70.7933 43.72 64.84 44.1H63.89C63.7633 45.24 63.7 48.5967 63.7 54.17C63.7 66.2033 64.1433 96.6033 65.03 145.37C62.1167 145.877 58.1267 146.13 53.06 146.13H47.55C40.4567 146.13 34.9467 146.447 31.02 147.08C30.64 146.447 30.3233 145.053 30.07 142.9L27.22 143.28C26.5867 142.14 26.27 139.733 26.27 136.06L26.46 106.99C26.46 88.8767 25.89 67.85 24.75 43.91C23.7367 43.7833 22.1533 43.72 20 43.72C19.24 43.72 17.8467 43.72 15.82 43.72C13.92 43.72 12.1467 43.6567 10.5 43.53C8.98 43.4033 7.52333 43.0867 6.13 42.58C6.00333 42.3267 5.87667 41.9467 5.75 41.44C5.75 40.9333 5.49667 40.49 4.99 40.11C4.48333 39.73 3.59667 39.2867 2.33 38.78C1.95 37.8933 1.57 35.6133 1.19 31.94C0.936667 28.2667 0.81 24.2767 0.81 19.97C0.81 13.13 0.873333 8.25332 1 5.33999C8.98 5.33999 14.9967 5.27666 19.05 5.14999L37.29 4.96C55.6567 4.96 70.9833 5.65666 83.27 7.04999L84.98 8.75999V10.66L87.07 10.85L88.78 12.56ZM2.9 7.23999L3.09 7.62C2.83667 9.26666 2.71 11.6733 2.71 14.84C2.71 28.6467 3.09 36.1833 3.85 37.45C4.48333 37.7033 6.44667 37.83 9.74 37.83C14.1733 37.83 17.6567 37.9567 20.19 38.21C22.7233 38.3367 24.8767 38.8433 26.65 39.73L26.84 39.92C27.8533 62.9733 28.36 85.7733 28.36 108.32C28.36 118.073 28.2333 126.497 27.98 133.59V139.29L28.17 141.19C30.45 140.81 32.92 140.62 35.58 140.62H43.56C51.0333 140.62 56.29 140.367 59.33 139.86V139.48C58.4433 90.84 58 61.1367 58 50.37V43.53C58 40.9967 58.1267 39.4767 58.38 38.97L58.57 38.4H59.14C65.7267 38.02 70.92 37.83 74.72 37.83C77.76 37.83 80.2933 38.02 82.32 38.4C83.08 32.8267 83.46 26.7467 83.46 20.16C83.46 17.5 83.3333 13.7633 83.08 8.94999C70.54 7.68332 55.2767 7.04999 37.29 7.04999L2.9 7.23999ZM81.8732 53.6C83.7732 49.5467 87.5099 46.5067 93.0832 44.48C98.7832 42.4533 105.18 41.44 112.273 41.44C113.287 41.5667 115.63 41.63 119.303 41.63L123.863 41.44C128.677 41.44 133.363 42.2 137.923 43.72C142.483 45.24 146.283 47.4567 149.323 50.37H149.133C149.513 50.8767 150.083 51.5733 150.843 52.46C151.603 53.22 152.3 53.79 152.933 54.17L152.743 53.98C156.163 56.26 158.443 60.82 159.583 67.66C160.85 74.5 161.483 82.9867 161.483 93.12C161.483 102.113 160.913 111.423 159.773 121.05C158.633 130.677 157.05 136.63 155.023 138.91C152.363 142.71 148.753 145.307 144.193 146.7C139.633 148.093 134.313 148.79 128.233 148.79C121.773 148.79 116.517 148.6 112.463 148.22C108.537 147.84 104.61 146.763 100.683 144.99C96.8832 143.343 93.2099 140.683 89.6632 137.01L87.9532 135.3C84.0265 131.627 81.3665 126.94 79.9732 121.24C78.5799 115.413 77.8832 108.637 77.8832 100.91V94.07L78.0732 87.61C78.0732 86.09 78.0099 84.6333 77.8832 83.24C77.7565 81.8467 77.6932 80.58 77.6932 79.44C77.6932 73.9933 77.8199 69.8767 78.0732 67.09C78.3265 64.3033 79.2765 60.9467 80.9232 57.02H80.7332C80.8599 56.26 80.9865 55.5 81.1132 54.74C81.3665 53.98 81.6199 53.4733 81.8732 53.22V53.41L81.6832 53.98L81.8732 53.6ZM79.7832 87.23V101.29C79.7832 112.437 81.6199 121.683 85.2932 129.03C89.0932 136.25 95.8699 140.683 105.623 142.33L114.553 142.52C118.86 142.773 122.217 142.9 124.623 142.9C130.577 142.9 135.643 142.267 139.823 141C144.003 139.733 147.297 137.39 149.703 133.97C151.857 131.817 153.25 127.003 153.883 119.53C154.643 112.057 155.277 101.987 155.783 89.32C155.783 88.18 155.657 84.1267 155.403 77.16C155.15 70.0667 154.39 64.43 153.123 60.25C151.983 55.9433 150.273 53.0933 147.993 51.7C142.293 46.1267 133.997 43.34 123.103 43.34L115.883 43.53C114.237 43.53 112.97 43.4667 112.083 43.34C105.623 43.34 99.6699 44.29 94.2232 46.19C88.7765 48.09 85.2299 50.8133 83.5832 54.36C82.1899 59.3 81.1765 63.67 80.5432 67.47C79.9099 71.27 79.5932 75.1967 79.5932 79.25L79.7832 87.23ZM118.733 72.03C127.6 72.03 132.033 78.6167 132.033 91.79C132.033 97.2367 131.78 101.607 131.273 104.9C130.767 108.067 129.437 110.663 127.283 112.69C125.13 114.717 121.837 115.73 117.403 115.73C113.603 115.73 110.5 114.907 108.093 113.26C105.687 111.613 104.483 108.953 104.483 105.28C104.61 103.633 104.673 100.72 104.673 96.54C104.673 90.7133 104.8 86.2167 105.053 83.05C105.433 79.7567 106.193 77.6667 107.333 76.78C109.867 73.6133 113.667 72.03 118.733 72.03ZM112.273 82.1C111.26 82.7333 110.627 85.6467 110.373 90.84C110.247 95.9067 110.183 102.05 110.183 109.27C110.183 111.297 110.817 112.563 112.083 113.07C113.35 113.577 115.123 113.83 117.403 113.83C125.13 113.83 128.993 111.17 128.993 105.85C129.753 99.01 130.133 94.07 130.133 91.03C130.133 86.85 129.627 83.62 128.613 81.34C127.727 79.06 125.573 77.92 122.153 77.92C121.393 77.92 120 78.0467 117.973 78.3H118.163C115.757 78.9333 113.92 80.0733 112.653 81.72L112.273 82.1ZM217.389 89.13C220.429 93.9433 222.646 97.5533 224.039 99.96C229.993 109.333 235.059 117.567 239.239 124.66C243.419 131.627 247.409 138.973 251.209 146.7C248.676 146.7 244.496 146.827 238.669 147.08C232.336 147.333 227.459 147.46 224.039 147.46C221.506 147.46 219.479 147.143 217.959 146.51C216.566 146.003 215.426 144.863 214.539 143.09L212.829 142.71C209.029 136.883 205.483 130.297 202.189 122.95C200.923 120.163 199.909 118.073 199.149 116.68L199.339 127.89C199.339 135.49 198.833 141.823 197.819 146.89C195.919 146.763 193.069 146.7 189.269 146.7H186.229C182.176 146.953 179.009 147.08 176.729 147.08C176.223 147.08 175.209 147.08 173.689 147.08C172.296 147.207 171.156 146.953 170.269 146.32C169.509 145.687 169.129 144.61 169.129 143.09C168.496 143.09 167.293 142.963 165.519 142.71C165.013 129.41 164.759 114.147 164.759 96.92C164.759 86.66 164.886 71.0167 165.139 49.99C165.393 28.71 165.519 12.4333 165.519 1.15999C169.446 1.15999 172.486 1.09666 174.639 0.969991L185.089 0.779993C186.356 0.779993 188.383 0.906658 191.169 1.15999L195.159 1.35V4.96L198.959 5.14999V48.47C198.959 51.0033 198.896 52.9033 198.769 54.17L198.579 60.06L201.999 54.36C205.419 48.66 208.713 43.91 211.879 40.11C214.539 40.9967 218.023 41.44 222.329 41.44L230.499 41.25C234.299 40.9967 237.213 40.87 239.239 40.87C242.026 40.87 244.243 40.9333 245.889 41.06C245.509 41.6933 245.066 42.3267 244.559 42.96C244.179 43.4667 243.799 44.0367 243.419 44.67C245.953 44.67 248.043 44.7333 249.689 44.86C245.383 51.5733 241.393 57.4633 237.719 62.53C234.046 67.47 229.359 73.6133 223.659 80.96L217.389 89.13ZM223.469 141.76C226.383 141.76 230.499 141.633 235.819 141.38C240.126 141.127 242.976 141 244.369 141C241.076 134.413 237.656 128.143 234.109 122.19C230.563 116.237 225.686 108.32 219.479 98.44L211.309 85.33L222.139 71.08C232.019 58.0333 238.859 48.5967 242.659 42.77H239.999L231.829 42.96C227.523 43.2133 224.293 43.34 222.139 43.34C217.579 43.34 214.413 42.96 212.639 42.2C209.726 45.62 207.003 49.6733 204.469 54.36C200.543 61.2 196.806 66.2033 193.259 69.37C193.006 66.5833 192.879 64.1767 192.879 62.15C192.879 58.4767 192.943 55.6267 193.069 53.6L193.259 44.67V3.06C190.979 2.80666 189.079 2.67999 187.559 2.67999L180.719 2.86999L167.419 3.06C167.419 13.5733 167.293 29.2167 167.039 49.99C166.786 70.7633 166.659 86.47 166.659 97.11C166.659 113.07 166.913 127.7 167.419 141C170.206 141.253 172.296 141.38 173.689 141.38C175.716 141.38 178.503 141.253 182.049 141L189.079 140.81L192.499 141C193.259 136.947 193.639 131.373 193.639 124.28L193.449 112.5C193.323 110.473 193.259 107.75 193.259 104.33C195.539 107.243 197.566 110.347 199.339 113.64C201.239 116.807 203.266 120.733 205.419 125.42C209.093 132.893 211.879 138.087 213.779 141C215.933 141.507 219.163 141.76 223.469 141.76ZM273.098 102.62C273.098 105.913 273.288 108.637 273.668 110.79C274.174 112.817 275.124 115.033 276.518 117.44V117.82C278.164 118.707 280.191 119.15 282.598 119.15C285.258 119.15 287.474 117.947 289.248 115.54C291.021 113.007 291.908 109.27 291.908 104.33V102.43C294.694 102.683 296.784 102.81 298.178 102.81L304.828 102.62C306.221 102.493 308.374 102.43 311.288 102.43C313.441 102.43 316.291 102.747 319.838 103.38L319.648 106.61L323.638 107.18C323.638 120.86 322.118 130.677 319.078 136.63C316.164 142.583 312.364 146.13 307.678 147.27C303.118 148.537 296.088 149.17 286.588 149.17C278.988 149.17 272.908 148.6 268.348 147.46C263.914 146.447 260.114 144.04 256.948 140.24C251.121 135.427 246.814 128.523 244.028 119.53C241.241 110.537 239.848 100.783 239.848 90.27C239.848 77.9833 241.304 67.9133 244.218 60.06C246.878 53.98 251.501 49.3567 258.088 46.19C264.674 42.8967 272.021 41.25 280.128 41.25C289.881 41.25 298.051 43.34 304.638 47.52C311.351 51.7 316.291 57.3367 319.458 64.43C322.751 71.3967 324.398 79.06 324.398 87.42C324.398 88.18 324.208 91.41 323.828 97.11C321.421 97.7433 315.024 98.3133 304.638 98.82C294.378 99.3267 285.258 99.58 277.278 99.58C275.378 99.58 273.984 99.5167 273.098 99.39V102.62ZM267.398 93.31C268.918 93.69 273.288 93.88 280.508 93.88C287.474 93.88 295.011 93.69 303.118 93.31C311.224 92.8033 316.291 92.2967 318.318 91.79C318.571 87.99 318.698 85.2667 318.698 83.62C318.698 70.9533 315.848 61.0733 310.148 53.98C304.574 46.76 294.568 43.15 280.128 43.15C272.528 43.15 265.498 44.7333 259.038 47.9C252.704 50.94 248.334 55.1833 245.928 60.63C243.014 68.4833 241.558 78.9967 241.558 92.17C241.558 105.343 243.774 116.743 248.208 126.37C252.641 135.997 259.544 141.507 268.918 142.9L277.278 143.09C281.584 143.343 284.941 143.47 287.348 143.47C293.301 143.47 298.368 142.837 302.548 141.57C306.854 140.303 310.211 137.96 312.618 134.54C314.264 133.147 315.404 130.233 316.038 125.8C316.671 121.24 317.304 114.273 317.938 104.9C316.038 104.52 313.568 104.33 310.528 104.33L303.118 104.52C301.598 104.647 299.508 104.71 296.848 104.71C295.328 104.71 294.378 104.647 293.998 104.52V106.04C293.998 110.98 292.858 114.717 290.578 117.25C288.424 119.783 285.764 121.05 282.598 121.05C272.844 121.05 267.778 112.943 267.398 96.73V93.31ZM297.798 78.3C297.798 78.68 297.354 78.87 296.468 78.87C295.834 78.87 294.568 78.8067 292.668 78.68C290.768 78.5533 288.488 78.49 285.828 78.49L273.478 78.68C271.071 78.68 269.488 78.5533 268.728 78.3C267.968 78.0467 267.588 77.4767 267.588 76.59C267.588 66.8367 272.971 61.96 283.738 61.96C286.144 61.96 288.361 62.5933 290.388 63.86C292.668 65 294.441 66.71 295.708 68.99C297.101 71.27 297.798 73.6767 297.798 76.21V78.3ZM293.238 69.18C291.591 68.1667 289.691 67.66 287.538 67.66C283.104 67.66 279.874 68.42 277.848 69.94C275.948 71.46 274.618 73.74 273.858 76.78L277.468 76.59H285.828L293.998 76.78L295.898 76.97V76.21C295.898 73.2967 295.074 71.0167 293.428 69.37L293.238 69.18ZM359.612 50.75C365.818 46.95 372.532 45.05 379.752 45.05C383.805 45.05 387.732 45.7467 391.532 47.14C395.332 48.5333 398.182 50.6867 400.082 53.6L402.362 55.31C405.655 57.8433 407.302 68.4833 407.302 87.23C407.302 92.17 407.175 99.58 406.922 109.46C406.668 119.087 406.542 126.117 406.542 130.55C406.542 135.617 406.668 140.81 406.922 146.13C402.362 146.763 397.042 147.08 390.962 147.08H379.562C379.435 146.193 379.372 144.927 379.372 143.28H375.762C375.382 139.353 375.192 131.69 375.192 120.29V110.79C375.192 103.443 375.065 97.7433 374.812 93.69C374.558 89.6367 373.862 86.2167 372.722 83.43C371.708 83.05 370.378 82.86 368.732 82.86C364.932 82.86 362.272 84.1267 360.752 86.66C359.358 89.1933 358.662 94.07 358.662 101.29C358.662 104.71 358.788 109.46 359.042 115.54C359.295 121.873 359.422 126.497 359.422 129.41C359.422 134.857 359.168 139.607 358.662 143.66V145.75C354.228 146.89 350.555 147.46 347.642 147.46C345.868 147.46 344.475 147.397 343.462 147.27L338.902 147.08H336.812C334.912 147.08 333.075 147.207 331.302 147.46V143.28L327.502 143.66L327.312 107.75C327.058 91.79 326.932 79.6933 326.932 71.46C326.932 64.7467 327.058 55.69 327.312 44.29C330.352 44.67 333.202 44.86 335.862 44.86C336.875 44.86 338.522 44.67 340.802 44.29C343.208 43.91 346.438 43.72 350.492 43.72C353.912 43.72 355.685 44.48 355.812 46C355.812 46.76 356.382 47.4567 357.522 48.09C358.788 48.5967 359.485 49.1667 359.612 49.8V50.75ZM351.632 45.43C348.085 45.43 344.095 45.7467 339.662 46.38C337.635 46.6333 336.368 46.76 335.862 46.76H333.582C331.935 46.76 330.478 46.6333 329.212 46.38C328.958 50.3067 328.832 56.07 328.832 63.67V75.26C328.832 82.9867 328.958 94.1967 329.212 108.89L329.402 141.57C330.922 141.443 332.948 141.38 335.482 141.38L344.602 141.57C347.262 141.57 350.048 141.19 352.962 140.43V139.67C353.468 135.49 353.722 130.803 353.722 125.61C353.722 122.317 353.595 117.503 353.342 111.17C353.088 104.837 352.962 100.023 352.962 96.73C352.962 89.13 353.912 84 355.812 81.34C357.712 78.5533 360.752 77.16 364.932 77.16C369.492 77.16 372.405 78.5533 373.672 81.34C375.065 84 375.888 87.04 376.142 90.46C376.395 93.7533 376.585 96.0333 376.712 97.3C376.965 99.2 377.092 102.24 377.092 106.42V113.07V127.13V133.21C377.092 137.01 377.218 139.733 377.472 141.38L388.492 141.57C393.052 141.57 397.295 141.253 401.222 140.62C400.968 135.807 400.842 131.817 400.842 128.65C400.842 124.217 400.968 117.06 401.222 107.18C401.475 96.7933 401.602 89.1933 401.602 84.38C401.602 75.64 401.285 68.61 400.652 63.29C400.018 57.8433 398.878 54.36 397.232 52.84C392.925 48.9133 387.035 46.95 379.562 46.95C375.508 46.95 371.898 47.5833 368.732 48.85C365.565 50.1167 362.588 51.5733 359.802 53.22C357.015 54.74 355.178 55.7533 354.292 56.26L354.482 51.89C354.482 47.5833 353.532 45.43 351.632 45.43ZM414.559 53.6C416.459 49.5467 420.195 46.5067 425.769 44.48C431.469 42.4533 437.865 41.44 444.959 41.44C445.972 41.5667 448.315 41.63 451.989 41.63L456.549 41.44C461.362 41.44 466.049 42.2 470.609 43.72C475.169 45.24 478.969 47.4567 482.009 50.37H481.819C482.199 50.8767 482.769 51.5733 483.529 52.46C484.289 53.22 484.985 53.79 485.619 54.17L485.429 53.98C488.849 56.26 491.129 60.82 492.269 67.66C493.535 74.5 494.169 82.9867 494.169 93.12C494.169 102.113 493.599 111.423 492.459 121.05C491.319 130.677 489.735 136.63 487.709 138.91C485.049 142.71 481.439 145.307 476.879 146.7C472.319 148.093 466.999 148.79 460.919 148.79C454.459 148.79 449.202 148.6 445.149 148.22C441.222 147.84 437.295 146.763 433.369 144.99C429.569 143.343 425.895 140.683 422.349 137.01L420.639 135.3C416.712 131.627 414.052 126.94 412.659 121.24C411.265 115.413 410.569 108.637 410.569 100.91V94.07L410.759 87.61C410.759 86.09 410.695 84.6333 410.569 83.24C410.442 81.8467 410.379 80.58 410.379 79.44C410.379 73.9933 410.505 69.8767 410.759 67.09C411.012 64.3033 411.962 60.9467 413.609 57.02H413.419C413.545 56.26 413.672 55.5 413.799 54.74C414.052 53.98 414.305 53.4733 414.559 53.22V53.41L414.369 53.98L414.559 53.6ZM412.469 87.23V101.29C412.469 112.437 414.305 121.683 417.979 129.03C421.779 136.25 428.555 140.683 438.309 142.33L447.239 142.52C451.545 142.773 454.902 142.9 457.309 142.9C463.262 142.9 468.329 142.267 472.509 141C476.689 139.733 479.982 137.39 482.389 133.97C484.542 131.817 485.935 127.003 486.569 119.53C487.329 112.057 487.962 101.987 488.469 89.32C488.469 88.18 488.342 84.1267 488.089 77.16C487.835 70.0667 487.075 64.43 485.809 60.25C484.669 55.9433 482.959 53.0933 480.679 51.7C474.979 46.1267 466.682 43.34 455.789 43.34L448.569 43.53C446.922 43.53 445.655 43.4667 444.769 43.34C438.309 43.34 432.355 44.29 426.909 46.19C421.462 48.09 417.915 50.8133 416.269 54.36C414.875 59.3 413.862 63.67 413.229 67.47C412.595 71.27 412.279 75.1967 412.279 79.25L412.469 87.23ZM451.419 72.03C460.285 72.03 464.719 78.6167 464.719 91.79C464.719 97.2367 464.465 101.607 463.959 104.9C463.452 108.067 462.122 110.663 459.969 112.69C457.815 114.717 454.522 115.73 450.089 115.73C446.289 115.73 443.185 114.907 440.779 113.26C438.372 111.613 437.169 108.953 437.169 105.28C437.295 103.633 437.359 100.72 437.359 96.54C437.359 90.7133 437.485 86.2167 437.739 83.05C438.119 79.7567 438.879 77.6667 440.019 76.78C442.552 73.6133 446.352 72.03 451.419 72.03ZM444.959 82.1C443.945 82.7333 443.312 85.6467 443.059 90.84C442.932 95.9067 442.869 102.05 442.869 109.27C442.869 111.297 443.502 112.563 444.769 113.07C446.035 113.577 447.809 113.83 450.089 113.83C457.815 113.83 461.679 111.17 461.679 105.85C462.439 99.01 462.819 94.07 462.819 91.03C462.819 86.85 462.312 83.62 461.299 81.34C460.412 79.06 458.259 77.92 454.839 77.92C454.079 77.92 452.685 78.0467 450.659 78.3H450.849C448.442 78.9333 446.605 80.0733 445.339 81.72L444.959 82.1ZM530.125 50.75C536.331 46.95 543.045 45.05 550.265 45.05C554.318 45.05 558.118 45.7467 561.665 47.14C565.211 48.4067 568.125 50.4967 570.405 53.41L574.775 51.13C578.575 49.1033 581.931 47.5833 584.845 46.57C587.758 45.5567 591.115 45.05 594.915 45.05C598.968 45.05 602.895 45.7467 606.695 47.14C610.495 48.5333 613.345 50.6867 615.245 53.6L617.525 55.31C620.818 57.8433 622.465 68.4833 622.465 87.23C622.465 92.17 622.338 99.58 622.085 109.46C621.831 119.087 621.705 126.117 621.705 130.55C621.705 135.617 621.831 140.81 622.085 146.13C617.525 146.763 612.205 147.08 606.125 147.08H594.725C594.598 146.193 594.535 144.927 594.535 143.28H590.925C590.545 139.353 590.355 131.69 590.355 120.29V110.79C590.355 103.95 590.228 98.44 589.975 94.26C589.721 89.9533 589.025 86.3433 587.885 83.43C586.998 83.05 585.731 82.86 584.085 82.86C581.425 82.86 579.335 83.43 577.815 84.57V89.13C577.815 93.9433 577.688 101.163 577.435 110.79C577.181 120.417 577.055 127.447 577.055 131.88C577.055 134.16 577.245 138.91 577.625 146.13C573.065 146.763 567.745 147.08 561.665 147.08H550.075C549.948 146.193 549.885 144.927 549.885 143.28H546.275C545.895 139.353 545.705 131.69 545.705 120.29V110.79C545.705 103.443 545.578 97.7433 545.325 93.69C545.071 89.6367 544.375 86.2167 543.235 83.43C542.348 83.05 541.018 82.86 539.245 82.86C535.445 82.86 532.785 84.1267 531.265 86.66C529.871 89.1933 529.175 94.07 529.175 101.29C529.175 104.71 529.301 109.46 529.555 115.54C529.808 121.873 529.935 126.497 529.935 129.41C529.935 134.857 529.681 139.607 529.175 143.66V145.75C524.741 146.89 521.068 147.46 518.155 147.46C516.381 147.46 514.988 147.397 513.975 147.27L509.415 147.08H507.325C505.425 147.08 503.588 147.207 501.815 147.46V143.28L498.015 143.66L497.825 107.75C497.571 91.79 497.445 79.6933 497.445 71.46C497.445 64.7467 497.571 55.69 497.825 44.29C500.865 44.67 503.715 44.86 506.375 44.86C507.388 44.86 509.035 44.67 511.315 44.29C513.721 43.91 516.951 43.72 521.005 43.72C524.425 43.72 526.198 44.48 526.325 46C526.325 46.76 526.895 47.4567 528.035 48.09C529.301 48.5967 529.998 49.1667 530.125 49.8V50.75ZM522.145 45.43C518.598 45.43 514.608 45.7467 510.175 46.38C508.148 46.6333 506.881 46.76 506.375 46.76H504.095C502.448 46.76 500.991 46.6333 499.725 46.38C499.471 50.3067 499.345 56.07 499.345 63.67V75.26C499.345 82.9867 499.471 94.1967 499.725 108.89L499.915 141.57C501.435 141.443 503.461 141.38 505.995 141.38L515.115 141.57C517.775 141.57 520.561 141.19 523.475 140.43V139.67C523.981 135.49 524.235 130.803 524.235 125.61C524.235 122.317 524.108 117.503 523.855 111.17C523.601 104.837 523.475 100.023 523.475 96.73C523.475 89.13 524.425 84 526.325 81.34C528.225 78.5533 531.265 77.16 535.445 77.16C540.005 77.16 542.918 78.5533 544.185 81.34C545.578 84 546.401 87.04 546.655 90.46C546.908 93.7533 547.098 96.0333 547.225 97.3C547.478 99.2 547.605 102.24 547.605 106.42V113.07V127.13V133.21C547.605 137.01 547.731 139.733 547.985 141.38L559.005 141.57C563.565 141.57 567.808 141.253 571.735 140.62C571.481 136.313 571.355 132.767 571.355 129.98C571.355 125.8 571.481 119.15 571.735 110.03C571.988 100.15 572.115 92.8667 572.115 88.18V79.82C574.521 78.0467 577.245 77.16 580.285 77.16C584.845 77.16 587.758 78.49 589.025 81.15C590.291 83.81 591.051 86.85 591.305 90.27C591.558 93.69 591.748 96.0333 591.875 97.3C592.128 99.2 592.255 102.24 592.255 106.42V113.07V127.13V133.21C592.255 137.01 592.381 139.733 592.635 141.38L603.655 141.57C608.215 141.57 612.458 141.253 616.385 140.62C616.131 135.807 616.005 131.817 616.005 128.65C616.005 124.217 616.131 117.06 616.385 107.18C616.638 96.7933 616.765 89.1933 616.765 84.38C616.765 75.64 616.448 68.61 615.815 63.29C615.181 57.8433 614.041 54.36 612.395 52.84C608.088 48.9133 602.198 46.95 594.725 46.95C590.291 46.95 586.428 47.6467 583.135 49.04C579.841 50.4333 575.345 52.7767 569.645 56.07C568.378 53.03 565.781 50.75 561.855 49.23C558.055 47.71 554.128 46.95 550.075 46.95C546.021 46.95 542.411 47.5833 539.245 48.85C536.078 50.1167 533.101 51.5733 530.315 53.22C527.528 54.74 525.691 55.7533 524.805 56.26L524.995 51.89C524.995 47.5833 524.045 45.43 522.145 45.43ZM657.158 6.48H660.958L661.148 16.74C661.401 24.0867 661.528 29.5967 661.528 33.27C660.134 35.4233 657.094 36.5 652.408 36.5C651.268 36.5 648.798 36.3733 644.998 36.12H645.188L638.728 35.93C636.194 35.93 633.978 35.9933 632.078 36.12V32.13L628.278 32.32C628.278 29.9133 628.151 26.3033 627.898 21.49C627.644 15.6633 627.518 10.5333 627.518 6.09999V2.11L657.158 2.67999V6.48ZM629.418 7.04999C629.418 10.9767 629.544 15.6 629.798 20.92C630.051 25.2267 630.178 28.33 630.178 30.23H633.408C635.308 30.23 638.031 30.3567 641.578 30.61L648.418 30.8C652.598 30.8 655.068 30.1667 655.828 28.9C655.828 24.8467 655.701 19.2733 655.448 12.18C655.321 9.89999 655.258 7.36666 655.258 4.57999L629.418 4.01V7.04999ZM657.918 47.71L661.718 48.28C661.718 55.5 661.591 66.4567 661.338 81.15C660.958 92.17 660.768 103.443 660.768 114.97C660.768 126.243 661.021 135.997 661.528 144.23C660.514 145.243 659.121 145.94 657.348 146.32C655.574 146.7 653.294 146.89 650.508 146.89C646.834 146.89 644.048 146.827 642.148 146.7H642.338L637.778 146.51C634.991 146.51 632.648 146.827 630.748 147.46C630.748 146.573 630.874 144.99 631.128 142.71C629.228 142.963 627.834 143.28 626.948 143.66C627.581 135.173 627.898 126.433 627.898 117.44C627.898 112.373 627.771 104.773 627.518 94.64C627.264 84.5067 627.138 76.78 627.138 71.46C627.138 62.5933 627.581 53.2833 628.468 43.53C629.354 43.53 629.988 43.4667 630.368 43.34L633.408 42.96C634.421 42.96 636.321 43.0867 639.108 43.34C642.021 43.4667 645.124 43.53 648.418 43.53H652.788L657.918 44.48V47.71ZM648.418 45.43C644.238 45.43 640.248 45.3033 636.448 45.05L630.938 44.86H630.178V45.05C629.418 51.7633 629.038 60.44 629.038 71.08C629.038 75.8933 629.164 83.4933 629.418 93.88C629.671 104.267 629.798 112.183 629.798 117.63C629.798 126.243 629.544 134.033 629.038 141C629.291 140.873 630.304 140.81 632.078 140.81C634.738 140.81 636.891 140.873 638.538 141L647.088 141.19C649.874 141.19 651.901 141.127 653.168 141C654.561 140.873 655.448 140.493 655.828 139.86C655.321 130.867 655.068 120.67 655.068 109.27C655.068 96.8567 655.258 84.57 655.638 72.41C655.891 60.5033 656.018 51.7 656.018 46V45.43H648.418ZM747.794 108.51C747.16 117.377 746.464 124.28 745.704 129.22C744.944 134.033 743.74 137.39 742.094 139.29C739.307 143.217 735.57 145.813 730.884 147.08C726.197 148.473 720.497 149.17 713.784 149.17C705.297 149.17 698.33 148.6 692.884 147.46C687.564 146.32 682.877 143.66 678.824 139.48L677.114 137.77C669.134 131.817 665.144 119.783 665.144 101.67V95.78C665.144 88.3067 664.954 82.9867 664.574 79.82C664.574 74.88 664.764 70.7633 665.144 67.47C665.65 64.1767 666.727 60.3133 668.374 55.88L668.184 56.07C669.324 51.3833 672.807 47.8367 678.634 45.43C684.587 43.0233 691.49 41.82 699.344 41.82C700.357 41.9467 702.7 42.01 706.374 42.01L710.934 41.82C716.634 41.82 722.08 42.8333 727.274 44.86C732.467 46.76 736.457 49.6733 739.244 53.6L740.004 54.17C743.424 56.7033 745.64 60.9467 746.654 66.9C747.667 72.7267 748.174 80.8967 748.174 91.41C744.12 92.0433 741.144 92.36 739.244 92.36C736.077 92.36 732.404 92.1067 728.224 91.6C724.17 91.0933 721.574 90.7767 720.434 90.65C720.307 90.3967 720.18 89.9533 720.054 89.32C719.927 88.56 719.61 88.0533 719.104 87.8C718.597 87.42 717.774 87.1033 716.634 86.85C716.254 83.9367 715.494 81.7833 714.354 80.39C713.214 78.9967 711.25 78.3 708.464 78.3C707.957 78.3 706.817 78.4267 705.044 78.68H705.234C702.194 79.5667 700.167 81.2133 699.154 83.62C698.14 86.0267 697.634 89.13 697.634 92.93V98.82C697.634 100.213 697.507 102.43 697.254 105.47L697.064 110.79C697.064 112.31 697.76 113.323 699.154 113.83C700.547 114.21 702.384 114.4 704.664 114.4C708.21 114.4 710.807 113.83 712.454 112.69H712.264C713.024 112.31 713.657 111.423 714.164 110.03C714.797 108.51 715.304 106.99 715.684 105.47C716.064 103.823 716.317 102.683 716.444 102.05C719.484 102.303 721.954 102.43 723.854 102.43L729.744 102.24C731.01 102.113 732.91 102.05 735.444 102.05C738.484 102.05 740.827 102.24 742.474 102.62L743.994 104.71L743.804 106.04L746.274 106.42L747.794 108.51ZM727.084 104.14C725.564 104.267 723.474 104.33 720.814 104.33C719.294 104.33 718.344 104.267 717.964 104.14C717.077 108.447 715.747 111.613 713.974 113.64C712.327 115.54 709.224 116.49 704.664 116.49C700.99 116.49 697.887 115.667 695.354 114.02C692.82 112.373 691.554 109.903 691.554 106.61V99.77C691.554 93.0567 691.807 87.8633 692.314 84.19C692.82 80.5167 694.024 77.6667 695.924 75.64C697.95 73.4867 701.054 72.41 705.234 72.41C708.78 72.41 711.694 73.55 713.974 75.83C716.254 78.11 717.71 81.2133 718.344 85.14C724.93 86.28 730.63 86.85 735.444 86.85C738.484 86.85 740.827 86.5967 742.474 86.09C742.474 84.8233 742.347 81.0233 742.094 74.69C741.967 68.23 741.27 63.2267 740.004 59.68C738.864 56.1333 737.217 53.5367 735.064 51.89C732.15 49.1033 728.477 47.0767 724.044 45.81C719.737 44.4167 715.114 43.72 710.174 43.72L702.954 43.91C701.307 43.91 700.04 43.8467 699.154 43.72C690.667 43.72 684.08 44.9233 679.394 47.33C674.707 49.61 671.35 53.3467 669.324 58.54C667.424 63.6067 666.474 70.6367 666.474 79.63C666.854 83.05 667.044 86.66 667.044 90.46L666.854 101.29C666.854 112.563 668.627 121.873 672.174 129.22C675.847 136.567 682.687 141.063 692.694 142.71L701.624 142.9C705.93 143.153 709.287 143.28 711.694 143.28C717.647 143.28 722.714 142.647 726.894 141.38C731.074 140.113 734.367 137.77 736.774 134.35C738.294 132.83 739.37 129.663 740.004 124.85C740.764 120.037 741.46 113.26 742.094 104.52C740.32 104.14 737.914 103.95 734.874 103.95L727.084 104.14ZM833.176 80.96C828.743 81.72 823.866 82.1 818.546 82.1C814.113 82.1 809.046 81.5933 803.346 80.58L803.536 79.06C803.536 78.3 803.22 77.7933 802.586 77.54C801.953 77.16 801.32 76.97 800.686 76.97C800.053 76.8433 799.673 76.78 799.546 76.78L799.736 75.26C799.736 73.2333 799.103 71.84 797.836 71.08C796.57 70.1933 794.923 69.56 792.896 69.18C790.616 69.8133 788.843 70.7633 787.576 72.03C786.31 73.2967 785.676 74.69 785.676 76.21C785.676 78.6167 786.943 80.3267 789.476 81.34L789.096 81.15C803.283 83.43 814.24 87.1033 821.966 92.17C829.693 97.2367 833.556 105.28 833.556 116.3C833.556 127.953 829.756 136.44 822.156 141.76C814.556 147.08 804.55 149.74 792.136 149.74C783.27 149.74 775.353 148.03 768.386 144.61C761.42 141.317 755.973 136.82 752.046 131.12C748.246 125.293 746.346 118.96 746.346 112.12V109.46C750.273 108.953 754.58 108.7 759.266 108.7L769.146 108.89C771.173 109.017 774.15 109.08 778.076 109.08C778.076 110.093 778.393 111.36 779.026 112.88H781.876C781.876 117.313 784.726 119.53 790.426 119.53C795.62 119.53 798.216 116.997 798.216 111.93C798.216 110.03 797.203 108.7 795.176 107.94C793.276 107.053 790.173 106.167 785.866 105.28C780.42 104.267 776.24 103.127 773.326 101.86H773.516C765.79 99.2 759.646 94.8933 755.086 88.94C750.526 82.86 748.246 76.59 748.246 70.13C748.246 64.1767 750.146 58.54 753.946 53.22C757.873 47.9 763.003 44.29 769.336 42.39C773.643 41.1233 780.23 40.49 789.096 40.49C797.583 40.49 804.55 41.1233 809.996 42.39C815.443 43.6567 819.876 46.4433 823.296 50.75C830.896 56.9567 834.696 66.3933 834.696 79.06L833.176 80.96ZM812.466 44.67C805.626 43.15 797.836 42.39 789.096 42.39C763.13 42.39 750.146 51.6367 750.146 70.13C750.146 75.83 751.856 81.0867 755.276 85.9C758.696 90.5867 763.7 94.07 770.286 96.35C773.326 97.7433 778.14 99.0733 784.726 100.34C790.173 101.607 794.1 102.873 796.506 104.14C798.913 105.407 800.116 107.56 800.116 110.6C800.116 114.4 799.293 117.187 797.646 118.96C796 120.607 793.593 121.43 790.426 121.43C786.88 121.43 783.713 120.48 780.926 118.58C778.14 116.68 776.62 114.147 776.366 110.98L754.516 110.79C751.603 110.79 749.513 110.917 748.246 111.17V112.12C748.246 121.873 751.92 129.663 759.266 135.49C766.613 141.19 776.303 144.04 788.336 144.04C799.863 144.04 809.3 141.697 816.646 137.01C823.993 132.197 827.666 124.027 827.666 112.5C827.666 105.913 826.146 100.657 823.106 96.73C820.066 92.8033 815.823 89.89 810.376 87.99C805.056 86.09 797.9 84.4433 788.906 83.05C785.993 82.0367 783.776 80.58 782.256 78.68C780.736 76.78 779.976 74.7533 779.976 72.6C779.976 70.4467 780.8 68.42 782.446 66.52C784.22 64.4933 786.626 63.48 789.666 63.48C792.58 63.48 795.366 64.5567 798.026 66.71C800.686 68.8633 802.016 71.2067 802.016 73.74C802.016 74.5 801.953 75.0067 801.826 75.26C805.753 76.02 810.06 76.4 814.746 76.4C819.94 76.4 824.69 76.02 828.996 75.26C828.996 68.04 827.666 61.77 825.006 56.45C822.346 51.0033 818.166 47.0767 812.466 44.67Z" fill="#E8ED02" fill-opacity="0.4"/>
</svg>
